<?xml version="1.0" standalone="no"?>
<!DOCTYPE svg PUBLIC "-//W3C//DTD SVG 20010904//EN"
 "http://www.w3.org/TR/2001/REC-SVG-20010904/DTD/svg10.dtd">
<svg version="1.0" xmlns="http://www.w3.org/2000/svg"
 width="48.000000pt" height="48.000000pt" viewBox="0 0 48.000000 48.000000"
 preserveAspectRatio="xMidYMid meet">
<metadata>
Created by potrace 1.16, written by Peter Selinger 2001-2019
</metadata>
<g transform="translate(0.000000,48.000000) scale(0.100000,-0.100000)"
fill="#000000" stroke="none">
<path d="M208 347 c-31 -12 -38 -46 -13 -67 11 -9 15 -33 15 -85 0 -40 3 -87
6 -104 6 -29 9 -31 49 -31 l42 0 -24 49 c-14 28 -27 76 -30 111 -6 61 -5 62
15 51 30 -16 42 -14 42 9 0 11 -4 20 -10 20 -5 0 -10 11 -10 24 0 35 -30 44
-82 23z"/>
</g>
</svg>
